<?xml version="1.0" encoding="UTF-8"?>
<!DOCTYPE svg PUBLIC "-//W3C//DTD SVG 1.1//EN" "http://www.w3.org/Graphics/SVG/1.1/DTD/svg11.dtd">
<svg enable-background="new 0 0 457.764 395.933" viewBox="0 0 457.764 395.933" xml:space="preserve" xmlns="http://www.w3.org/2000/svg" xmlns:xlink="http://www.w3.org/1999/xlink"><defs>
				<path d="m145.125,266.807a7.862,22.963 0 1,0 -15.724,0 7.862,22.963 0 1,0 15.724,0" id="SVGID_3_"></path>
			
				<path d="m140.013,266.838a5.258,15.357 0 1,0 -10.516,0 5.258,15.357 0 1,0 10.516,0" id="SVGID_7_"></path>
			
				<path d="m39.259,231.917a4.515,13.186 0 1,0 -9.03,0 4.515,13.186 0 1,0 9.03,0" id="SVGID_12_"></path>
			
				<path d="m36.323,231.936a3.019,8.818 0 1,0 -6.038,0 3.019,8.818 0 1,0 6.038,0" id="SVGID_16_"></path>
			
			<path d="m328.167,311.604c-.029.623.451,1.053 1.067.955l37.01-5.894c.616-.099 1.19-.684 1.277-1.302l1.186-8.504c.087-.617-.347-1.045-.963-.949l-38.01,5.902c-.616.096-1.144.684-1.173,1.307l-.394,8.485z" id="SVGID_36_"></path>
		<clipPath id="SVGID_4_">
				<use xlink:href="#SVGID_3_"></use>
			</clipPath><clipPath id="SVGID_8_">
				<use xlink:href="#SVGID_7_"></use>
			</clipPath><clipPath id="SVGID_13_">
				<use xlink:href="#SVGID_12_"></use>
			</clipPath><clipPath id="SVGID_17_">
				<use xlink:href="#SVGID_16_"></use>
			</clipPath><clipPath id="SVGID_37_">
			<use xlink:href="#SVGID_36_"></use>
		</clipPath><linearGradient gradientUnits="userSpaceOnUse" id="SVGID_1_" x2="0" y1="197.6114" y2="238.3907">
		<stop offset="0" stop-color="#a9998f"></stop>
		<stop offset="1" stop-color="#d4cbc5"></stop>
	</linearGradient><linearGradient gradientUnits="userSpaceOnUse" id="SVGID_2_" x2="0" y1="209.7715" y2="277.8477">
		<stop offset="0" stop-color="#a9998f"></stop>
		<stop offset="1" stop-color="#d4cbc5"></stop>
	</linearGradient><linearGradient gradientUnits="userSpaceOnUse" id="SVGID_5_" x2="0" y1="242.8438" y2="254.5674">
					<stop offset="0" stop-color="#69574e"></stop>
					<stop offset="1" stop-color="#fff"></stop>
				</linearGradient><linearGradient gradientUnits="userSpaceOnUse" id="SVGID_6_" x2="0" y1="253.5674" y2="289.7696">
					<stop offset="0" stop-color="#fff"></stop>
					<stop offset="1" stop-color="#69574e"></stop>
				</linearGradient><linearGradient gradientUnits="userSpaceOnUse" id="SVGID_9_" x1="140.229" x2="136.8904" y1="248.9341" y2="259.8542">
					<stop offset="0" stop-color="#69574e"></stop>
					<stop offset="1" stop-color="#fff"></stop>
				</linearGradient><linearGradient gradientUnits="userSpaceOnUse" id="SVGID_10_" x1="137.1831" x2="134.1006" y1="258.897" y2="268.9793">
					<stop offset="0" stop-color="#fff"></stop>
					<stop offset="1" stop-color="#a9998f"></stop>
				</linearGradient><linearGradient gradientUnits="userSpaceOnUse" id="SVGID_11_" x1="134.394" x2="129.5752" y1="268.0235" y2="283.7852">
					<stop offset="0" stop-color="#a9998f"></stop>
					<stop offset="1" stop-color="#69574e"></stop>
				</linearGradient><linearGradient gradientUnits="userSpaceOnUse" id="SVGID_14_" x2="0" y1="218.1573" y2="224.88957">
					<stop offset="0" stop-color="#69574e"></stop>
					<stop offset="1" stop-color="#fff"></stop>
				</linearGradient><linearGradient gradientUnits="userSpaceOnUse" id="SVGID_15_" x2="0" y1="224.31537" y2="245.10376">
					<stop offset="0" stop-color="#fff"></stop>
					<stop offset="1" stop-color="#69574e"></stop>
				</linearGradient><linearGradient gradientUnits="userSpaceOnUse" id="SVGID_18_" x1="36.44789" x2="34.53087" y1="221.65493" y2="227.92525">
					<stop offset="0" stop-color="#69574e"></stop>
					<stop offset="1" stop-color="#fff"></stop>
				</linearGradient><linearGradient gradientUnits="userSpaceOnUse" id="SVGID_19_" x1="34.69727" x2="32.92701" y1="227.37454" y2="233.16483">
					<stop offset="0" stop-color="#fff"></stop>
					<stop offset="1" stop-color="#a9998f"></stop>
				</linearGradient><linearGradient gradientUnits="userSpaceOnUse" id="SVGID_20_" x1="33.09692" x2="30.32996" y1="232.61606" y2="241.66614">
					<stop offset="0" stop-color="#a9998f"></stop>
					<stop offset="1" stop-color="#69574e"></stop>
				</linearGradient><linearGradient gradientUnits="userSpaceOnUse" id="SVGID_21_" x1="144.7153" x2="187.9282" y1="143.3687" y2="10.3731">
		<stop offset="0" stop-color="#69574e"></stop>
		<stop offset="1" stop-color="#f4f2f0"></stop>
	</linearGradient><linearGradient gradientUnits="userSpaceOnUse" id="SVGID_22_" x1="292.1597" x2="351.2002" y1="213.062" y2="31.354">
		<stop offset="0" stop-color="#69574e"></stop>
		<stop offset="1" stop-color="#f4f2f0"></stop>
	</linearGradient><linearGradient gradientUnits="userSpaceOnUse" id="SVGID_23_" x1="10.9536" x2="137.7894" y1="153.0025" y2="64.1911">
		<stop offset="0" stop-color="#a9998f"></stop>
		<stop offset="1" stop-color="#f4f2f0"></stop>
	</linearGradient><linearGradient gradientUnits="userSpaceOnUse" id="SVGID_24_" x2="0" y1="261.2129" y2="275.0879">
		<stop offset="0" stop-color="#a9998f"></stop>
		<stop offset="1" stop-color="#d4cbc5"></stop>
	</linearGradient><linearGradient gradientUnits="userSpaceOnUse" id="SVGID_25_" x2="0" y1="261.2129" y2="275.5879">
		<stop offset="0" stop-color="#69574e"></stop>
		<stop offset="1" stop-color="#fff"></stop>
	</linearGradient><linearGradient gradientUnits="userSpaceOnUse" id="SVGID_26_" x2="0" y1="260.3379" y2="274.9629">
		<stop offset="0" stop-color="#69574e"></stop>
		<stop offset="1" stop-color="#fff"></stop>
	</linearGradient><linearGradient gradientUnits="userSpaceOnUse" id="SVGID_27_" x1="274.7368" x2="268.2916" y1="265.3116" y2="271.1148">
		<stop offset="0" stop-color="#948177"></stop>
		<stop offset="1" stop-color="#eae5e2"></stop>
	</linearGradient><linearGradient gradientUnits="userSpaceOnUse" id="SVGID_28_" x1="294.7388" x2="290.027" y1="266.2217" y2="270.4643">
		<stop offset="0" stop-color="#948177"></stop>
		<stop offset="1" stop-color="#eae5e2"></stop>
	</linearGradient><linearGradient gradientUnits="userSpaceOnUse" id="SVGID_29_" x2="0" y1="275.2124" y2="262.086">
		<stop offset="0" stop-color="#fff381"></stop>
		<stop offset="1" stop-color="#f29400"></stop>
	</linearGradient><linearGradient gradientUnits="userSpaceOnUse" id="SVGID_30_" x1="189.104" x2="236.1206" y1="184.501" y2="39.7989">
		<stop offset="0" stop-color="#69574e"></stop>
		<stop offset="1" stop-color="#f4f2f0"></stop>
	</linearGradient><linearGradient gradientUnits="userSpaceOnUse" id="SVGID_31_" x2="0" y1="260.3374" y2="250.7305">
		<stop offset="0" stop-color="#fff381"></stop>
		<stop offset="1" stop-color="#f29400"></stop>
	</linearGradient><linearGradient gradientUnits="userSpaceOnUse" id="SVGID_32_" x2="0" y1="260.3379" y2="274.4629">
		<stop offset="0" stop-color="#a9998f"></stop>
		<stop offset="1" stop-color="#d4cbc5"></stop>
	</linearGradient><linearGradient gradientUnits="userSpaceOnUse" id="SVGID_33_" x2="0" y1="259.5879" y2="273.2129">
		<stop offset="0" stop-color="#a9998f"></stop>
		<stop offset="1" stop-color="#d4cbc5"></stop>
	</linearGradient><linearGradient gradientUnits="userSpaceOnUse" id="SVGID_34_" x2="0" y1="259.7129" y2="274.0879">
		<stop offset="0" stop-color="#69574e"></stop>
		<stop offset="1" stop-color="#fff"></stop>
	</linearGradient><linearGradient gradientUnits="userSpaceOnUse" id="SVGID_35_" x1="315.4878" x2="310.7759" y1="264.9717" y2="269.2144">
		<stop offset="0" stop-color="#948177"></stop>
		<stop offset="1" stop-color="#eae5e2"></stop>
	</linearGradient><linearGradient gradientUnits="userSpaceOnUse" id="SVGID_38_" x2="0" y1="251.0137" y2="262.0332">
			<stop offset="0" stop-color="#a9998f"></stop>
			<stop offset="1" stop-color="#d4cbc5"></stop>
		</linearGradient><linearGradient gradientUnits="userSpaceOnUse" id="SVGID_39_" x2="0" y1="252.3067" y2="264.1338">
			<stop offset="0" stop-color="#a9998f"></stop>
			<stop offset="1" stop-color="#d4cbc5"></stop>
		</linearGradient><linearGradient gradientUnits="userSpaceOnUse" id="SVGID_40_" x2="0" y1="250.1485" y2="260.6055">
			<stop offset="0" stop-color="#a9998f"></stop>
			<stop offset="1" stop-color="#d4cbc5"></stop>
		</linearGradient><linearGradient gradientUnits="userSpaceOnUse" id="SVGID_41_" x2="0" y1="252.3799" y2="265.6016">
			<stop offset="0" stop-color="#69574e"></stop>
			<stop offset="1" stop-color="#fff"></stop>
		</linearGradient><linearGradient gradientUnits="userSpaceOnUse" id="SVGID_42_" x1="406.3765" x2="401.4553" y1="255.7696" y2="260.2006">
			<stop offset="0" stop-color="#948177"></stop>
			<stop offset="1" stop-color="#eae5e2"></stop>
		</linearGradient><linearGradient gradientUnits="userSpaceOnUse" id="SVGID_43_" x2="0" y1="251.1348" y2="263.6123">
			<stop offset="0" stop-color="#69574e"></stop>
			<stop offset="1" stop-color="#fff"></stop>
		</linearGradient><linearGradient gradientUnits="userSpaceOnUse" id="SVGID_44_" x2="0" y1="250.1739" y2="261.8496">
			<stop offset="0" stop-color="#69574e"></stop>
			<stop offset="1" stop-color="#fff"></stop>
		</linearGradient><linearGradient gradientUnits="userSpaceOnUse" id="SVGID_45_" x1="416.0015" x2="411.637" y1="255.1993" y2="259.1291">
			<stop offset="0" stop-color="#948177"></stop>
			<stop offset="1" stop-color="#eae5e2"></stop>
		</linearGradient><linearGradient gradientUnits="userSpaceOnUse" id="SVGID_46_" x1="426.4341" x2="422.3987" y1="253.9873" y2="257.6209">
			<stop offset="0" stop-color="#948177"></stop>
			<stop offset="1" stop-color="#eae5e2"></stop>
		</linearGradient></defs>

	
		<path d="m179.623,381.236c0,0 37.229,21.626 68.869,12.41 32.071-7.984 173.494-31.888 173.494-31.888s37.516-8.493-4.425-23.654l-125.759-46.444-216.789-61.322-65,12.5c0,0-22.805,1.799.417,15.438 9.216,6.82 169.193,122.96 169.193,122.96z" fill="#f4f2f0" fill-rule="evenodd"></path>
		<path d="m179.473,380.32c0,0 36.873,21.418 68.21,12.291 31.764-7.908 171.832-31.582 171.832-31.582s37.109-8.404-4.382-23.428l-124.556-46-215.716-61.1-64.724,12.438c0,0-22.282,1.743.718,15.252 9.129,6.756 168.618,122.129 168.618,122.129z" fill="#f1edeb" fill-rule="evenodd"></path>
		<path d="m179.324,379.403c0,0 36.516,21.211 67.55,12.172 31.457-7.832 170.171-31.276 170.171-31.276s36.702-8.313-4.34-23.201l-123.351-45.556-214.644-60.876-64.446,12.375c0,0-21.76,1.688 1.019,15.066 9.039,6.69 168.041,121.296 168.041,121.296z" fill="#ede9e6" fill-rule="evenodd"></path>
		<path d="m179.174,378.486c0,0 36.159,21.004 66.89,12.053 31.15-7.756 168.509-30.971 168.509-30.971s36.297-8.223-4.298-22.975l-122.146-45.111-213.569-60.652-64.17,12.312c0,0-21.237,1.633 1.318,14.881 8.952,6.625 167.466,120.463 167.466,120.463z" fill="#eae5e2" fill-rule="evenodd"></path>
		<path d="m179.025,377.57c0,0 35.803,20.797 66.23,11.934 30.843-7.68 166.848-30.666 166.848-30.666s35.891-8.133-4.256-22.748l-120.941-44.666-212.497-60.43-63.894,12.25c0,0-20.714,1.578 1.619,14.695 8.863,6.559 166.891,119.631 166.891,119.631z" fill="#e6e0dd" fill-rule="evenodd"></path>
		<path d="m178.875,376.652c0,0 35.446,20.59 65.57,11.816 30.535-7.604 165.185-30.361 165.185-30.361s35.484-8.043-4.212-22.521l-119.737-44.221-211.424-60.207-63.616,12.188c0,0-20.191,1.523 1.919,14.51 8.774,6.494 166.315,118.796 166.315,118.796z" fill="#e3dcd8" fill-rule="evenodd"></path>
		<path d="m178.726,375.736c0,0 35.09,20.383 64.911,11.696 30.228-7.526 163.523-30.056 163.523-30.056s35.078-7.951-4.17-22.295l-118.532-43.775-210.351-59.984-63.34,12.126c0,0-19.669,1.467 2.219,14.323 8.686,6.428 165.74,117.965 165.74,117.965z" fill="#dfd7d3" fill-rule="evenodd"></path>
		<path d="m178.577,374.819c0,0 34.733,20.175 64.251,11.577 29.922-7.449 161.862-29.75 161.862-29.75s34.672-7.861-4.128-22.068l-117.328-43.33-209.278-59.762-63.063,12.064c0,0-19.146,1.41 2.52,14.137 8.596,6.364 165.164,117.132 165.164,117.132z" fill="#dbd3cf" fill-rule="evenodd"></path>
		<path d="m178.427,373.902c0,0 34.376,19.969 63.592,11.459 29.613-7.373 160.201-29.444 160.201-29.444s34.266-7.771-4.086-21.842l-116.124-42.886-208.206-59.539-62.786,12.002c0,0-18.623,1.355 2.819,13.951 8.51,6.297 164.59,116.299 164.59,116.299z" fill="#d8cfca" fill-rule="evenodd"></path>
		<path d="m178.277,372.985c0,0 34.021,19.761 62.933,11.341 29.307-7.297 158.538-29.14 158.538-29.14s33.86-7.681-4.043-21.615l-114.918-42.441-207.133-59.315-62.51,11.938c0,0-18.101,1.301 3.12,13.766 8.421,6.233 164.013,115.466 164.013,115.466z" fill="#d4cbc5" fill-rule="evenodd"></path>
		<path d="m178.128,372.068c0,0 33.663,19.555 62.271,11.222 29-7.22 156.878-28.833 156.878-28.833s33.454-7.592-4.001-21.389l-113.715-41.997-206.06-59.092-62.233,11.876c0,0-17.577,1.246 3.421,13.58 8.334,6.167 163.439,114.633 163.439,114.633z" fill="#d1c6c1" fill-rule="evenodd"></path>
		<path d="m177.978,371.152c0,0 33.307,19.347 61.613,11.102 28.692-7.144 155.215-28.527 155.215-28.527s33.048-7.502-3.958-21.162l-112.51-41.553-204.987-58.868-61.956,11.813c0,0-17.055,1.191 3.721,13.395 8.245,6.101 162.862,113.8 162.862,113.8z" fill="#cdc2bc" fill-rule="evenodd"></path>
		<path d="m177.829,370.235c0,0 32.95,19.14 60.954,10.983 28.385-7.067 153.554-28.223 153.554-28.223s32.642-7.41-3.916-20.936l-111.306-41.107-203.914-58.643-61.68,11.75c0,0-16.533,1.136 4.021,13.209 8.157,6.035 162.287,112.967 162.287,112.967z" fill="#cabeb7" fill-rule="evenodd"></path>
		<path d="m177.679,369.318c0,0 32.594,18.933 60.294,10.865 28.078-6.992 151.892-27.918 151.892-27.918s32.235-7.32-3.873-20.709l-110.102-40.661-202.841-58.422-61.403,11.687c0,0-16.009,1.08 4.322,13.022 8.068,5.972 161.711,112.136 161.711,112.136z" fill="#c6bab3" fill-rule="evenodd"></path>
		<path d="m177.53,368.402c0,0 32.237,18.725 59.634,10.745 27.771-6.915 150.23-27.612 150.23-27.612s31.83-7.23-3.83-20.482l-108.897-40.217-201.769-58.199-61.126,11.626c0,0-15.487,1.024 4.622,12.836 7.98,5.905 161.136,111.303 161.136,111.303z" fill="#c2b5ae" fill-rule="evenodd"></path>
		<path d="m177.38,367.484c0,0 31.881,18.52 58.975,10.627 27.464-6.838 148.568-27.307 148.568-27.307s31.423-7.139-3.789-20.256l-107.691-39.771-200.695-57.976-60.85,11.564c0,0-14.965.969 4.922,12.649 7.891,5.841 160.56,110.47 160.56,110.47z" fill="#bfb1aa" fill-rule="evenodd"></path>
		<path d="m177.231,366.568c0,0 31.524,18.311 58.315,10.508 27.156-6.762 146.907-27.002 146.907-27.002s31.017-7.049-3.747-20.029l-106.487-39.326-199.623-57.754-60.573,11.502c0,0-14.441.914 5.223,12.463 7.802,5.775 159.985,109.638 159.985,109.638z" fill="#bbada5" fill-rule="evenodd"></path>
		<path d="m177.082,365.65c0,0 31.167,18.105 57.655,10.391 26.849-6.686 145.245-26.697 145.245-26.697s30.61-6.959-3.704-19.803l-105.283-38.882-198.55-57.53-60.296,11.439c0,0-13.919.859 5.522,12.277 7.715,5.712 159.411,108.805 159.411,108.805z" fill="#b8a9a1" fill-rule="evenodd"></path>
		<path d="m176.932,364.734c0,0 30.811,17.897 56.995,10.271 26.543-6.608 143.584-26.391 143.584-26.391s30.205-6.868-3.661-19.576l-104.079-38.438-197.477-57.307-60.02,11.377c0,0-13.396.804 5.823,12.092 7.627,5.644 158.835,107.972 158.835,107.972z" fill="#b4a59c" fill-rule="evenodd"></path>
		<path d="m176.783,363.818c0,0 30.454,17.689 56.336,10.15 26.234-6.531 141.922-26.084 141.922-26.084s29.798-6.779-3.619-19.351l-102.874-37.993-196.405-57.083-59.743,11.314c0,0-12.873.748 6.123,11.906 7.539,5.581 158.26,107.141 158.26,107.141z" fill="#b1a198" fill-rule="evenodd"></path>
		<path d="m176.632,362.9c0,0 30.099,17.484 55.678,10.033 25.928-6.455 140.26-25.779 140.26-25.779s29.393-6.689-3.576-19.123l-101.67-37.549-195.332-56.861-59.467,11.252c0,0-12.35.693 6.424,11.721 7.451,5.513 157.683,106.306 157.683,106.306z" fill="#ad9d94" fill-rule="evenodd"></path>
		<path d="m176.484,361.984c0,0 29.74,17.275 55.017,9.914 25.621-6.379 138.599-25.475 138.599-25.475s28.986-6.598-3.534-18.896l-100.466-37.104-194.26-56.638-59.189,11.189c0,0-11.827.639 6.725,11.535 7.362,5.45 157.108,105.475 157.108,105.475z" fill="#a9998f" fill-rule="evenodd"></path>
	
		
	<path d="m35.801,236.762-13.221,1.629-.87-40.78 20.818,4.604z" fill="url(#SVGID_1_)" fill-rule="evenodd"></path>
		
	<path d="m116.768,209.771h62.219v68.076h-62.219z" fill="url(#SVGID_2_)" fill-rule="evenodd"></path>
	
		<path d="m165.416,220.354 .184-.003c8.422,0 15.249,19.94 15.249,44.538s-6.827,44.539-15.249,44.539l-28.336,3.41v-92l28.152-.484z" fill="#1d2d28"></path>
		<path d="m153.013,266.838a15.75,46 0 1,0 -31.5,0 15.75,46 0 1,0 31.5,0" fill="#1d2d28" fill-rule="evenodd"></path>
		
			<path d="m137.263,312.838c-6.938,0-12.828-13.102-14.928-31.297 2.635,14.105 6.746,21.797 12.365,21.797 7.742,0 15.48-16.062 15.48-38.673 0-16.753-4.763-34.937-10.38-43.233 7.492,3.545 13.212,22.523 13.212,45.406 .001,25.404-7.051,46-15.749,46z" fill="#1d2d28" fill-rule="evenodd"></path>
			<path d="m137.263,312.626c-6.668,0-12.373-12.289-14.52-29.646 2.622,13.33 6.583,20.789 12.145,20.799 7.845.018 15.379-16.545 15.379-39.114 0-16.456-4.61-34.304-10.096-42.702 7.241,3.869 12.755,22.473 12.755,44.875 0,25.445-7.067,45.788-15.663,45.788z" fill="#28312b" fill-rule="evenodd"></path>
			<path d="m137.263,312.414c-6.398,0-11.918-11.477-14.111-27.994 2.609,12.555 6.42,19.783 11.924,19.803 7.948.035 15.279-17.029 15.279-39.558 0-16.16-4.46-33.67-9.812-42.169 6.99,4.191 12.297,22.418 12.297,44.342-.001,25.486-7.085,45.576-15.577,45.576z" fill="#31352f" fill-rule="evenodd"></path>
			<path d="m137.263,312.203c-6.128,0-11.463-10.664-13.703-26.343 2.598,11.779 6.256,18.774 11.703,18.804 8.051.055 15.178-17.511 15.178-39.999 0-15.864-4.308-33.036-9.528-41.638 6.739,4.514 11.84,22.366 11.84,43.811-.001,25.527-7.101,45.365-15.49,45.365z" fill="#3a3832" fill-rule="evenodd"></path>
			<path d="m137.263,311.991c-5.858,0-11.008-9.851-13.295-24.69 2.585,11.004 6.093,17.768 11.482,17.807 8.154.07 15.078-17.995 15.078-40.442 0-15.567-4.157-32.403-9.246-41.104 6.488,4.836 11.383,22.312 11.383,43.277 .001,25.567-7.117,45.152-15.402,45.152z" fill="#423c35" fill-rule="evenodd"></path>
			<path d="m137.263,311.779c-5.588,0-10.553-9.037-12.887-23.039 2.572,10.229 5.93,16.761 11.262,16.809 8.258.09 14.977-18.477 14.977-40.884 0-15.271-4.005-31.771-8.961-40.573 6.237,5.16 10.925,22.26 10.925,42.746 0,25.609-7.134,44.941-15.316,44.941z" fill="#494039" fill-rule="evenodd"></path>
			<path d="m137.263,311.568c-5.318,0-10.098-8.225-12.479-21.389 2.56,9.453 5.766,15.754 11.041,15.812 8.361.107 14.877-18.96 14.877-41.326 0-14.976-3.854-31.138-8.68-40.041 5.988,5.483 10.469,22.207 10.469,42.214 .001,25.65-7.15,44.73-15.228,44.73z" fill="#50453d" fill-rule="evenodd"></path>
			<path d="m137.263,311.357c-5.048,0-9.643-7.413-12.07-19.738 2.547,8.678 5.602,14.747 10.82,14.814 8.464.125 14.775-19.443 14.775-41.769 0-14.679-3.702-30.505-8.395-39.509 5.736,5.805 10.011,22.154 10.011,41.682 .001,25.692-7.166,44.52-15.141,44.52z" fill="#574941" fill-rule="evenodd"></path>
			<path d="m137.263,311.145c-4.778,0-9.188-6.6-11.662-18.086 2.535,7.902 5.438,13.74 10.6,13.817 8.567.144 14.676-19.927 14.676-42.211 0-14.382-3.552-29.872-8.112-38.978 5.485,6.129 9.554,22.102 9.554,41.15-.001,25.732-7.185,44.308-15.056,44.308z" fill="#5d4e45" fill-rule="evenodd"></path>
			<path d="m137.263,310.934c-4.508,0-8.732-5.787-11.254-16.435 2.522,7.127 5.275,12.732 10.379,12.819 8.67.161 14.574-20.41 14.574-42.653 0-14.086-3.399-29.239-7.828-38.445 5.235,6.452 9.097,22.05 9.097,40.618 0,25.771-7.2,44.096-14.968,44.096z" fill="#64534a" fill-rule="evenodd"></path>
			<path d="m137.263,310.723c-4.238,0-8.276-4.975-10.846-14.783 2.51,6.352 5.111,11.725 10.158,11.82 8.773.18 14.475-20.893 14.475-43.095 0-13.79-3.249-28.606-7.545-37.913 4.983,6.774 8.639,21.996 8.639,40.086 0,25.812-7.217,43.885-14.881,43.885z" fill="#6a594f" fill-rule="evenodd"></path>
			<path d="m137.263,310.51c-3.969,0-7.821-4.16-10.438-13.131 2.498,5.576 4.948,10.719 9.938,10.824 8.877.197 14.373-21.377 14.373-43.538 0-13.493-3.097-27.973-7.261-37.381 4.733,7.097 8.182,21.942 8.182,39.554 0,25.853-7.232,43.672-14.794,43.672z" fill="#715f54" fill-rule="evenodd"></path>
			<path d="m137.263,310.299c-3.698,0-7.366-3.348-10.029-11.48 2.484,4.801 4.785,9.711 9.717,9.826 8.98.215 14.273-21.858 14.273-43.979 0-13.196-2.946-27.34-6.979-36.849 4.482,7.42 7.725,21.891 7.725,39.021 0,25.894-7.249,43.461-14.707,43.461z" fill="#78655a" fill-rule="evenodd"></path>
			<path d="m137.263,310.088c-3.428,0-6.911-2.536-9.621-9.83 2.473,4.025 4.621,8.705 9.496,8.83 9.083.232 14.172-22.343 14.172-44.423 0-12.901-2.794-26.706-6.694-36.317 4.231,7.744 7.268,21.838 7.268,38.49-.001,25.935-7.266,43.25-14.621,43.25z" fill="#7e6b60" fill-rule="evenodd"></path>
		
		
			
			
			<g clip-path="url(#SVGID_4_)">
					
				<path d="m129.401,242.844h15.725v11.724h-15.725z" fill="url(#SVGID_5_)" fill-rule="evenodd"></path>
					
				<path d="m129.401,253.567h15.725v36.202h-15.725z" fill="url(#SVGID_6_)" fill-rule="evenodd"></path>
			</g>
		
		
			
			
			<g clip-path="url(#SVGID_8_)">
					
				<path d="m124.707,244.188 31.043,9.492-3.337,10.92-31.044-9.493z" fill="url(#SVGID_9_)" fill-rule="evenodd"></path>
					
				<path d="m121.661,254.151 31.044,9.492-3.082,10.082-31.045-9.492z" fill="url(#SVGID_10_)" fill-rule="evenodd"></path>
					
				<path d="m118.871,263.277 31.044,9.492-4.819,15.761-31.044-9.491z" fill="url(#SVGID_11_)" fill-rule="evenodd"></path>
			</g>
		
		<path d="m134.771,251.48c2.904,0 5.242,6.875 5.242,15.357s-2.354,15.356-5.258,15.356c-1.66,0-3.142-2.247-4.105-5.759" fill="none" stroke="#a9998f" stroke-miterlimit="3.8637" stroke-width=".5"></path>
		
			<path d="m134.158,295.838c-5.661,0-10.25-12.48-10.25-27.875s4.589-27.875 10.25-27.875c2.29,0 4.405,2.042 6.111,5.494-.926-1.121-1.941-1.738-3.006-1.738-4.342,0-7.862,10.281-7.862,22.963s3.521,22.963 7.862,22.963c2.102,0 4.011-2.408 5.421-6.331-1.838,7.475-4.971,12.399-8.526,12.399z" fill="#1d2d28"></path>
			<path d="m134.212,295.553c-5.486-.021-10.079-12.218-10.079-27.613s4.593-27.772 10.079-27.75c2.29.014 4.351,1.94 6.057,5.393-.926-1.121-1.992-1.898-3.165-1.91-4.342-.021-7.897,10.535-7.897,23.217s3.521,23.058 7.863,23.058c2.102,0 4.177-2.458 5.588-6.38-1.943,7.294-4.891,12.006-8.446,11.985z" fill="#2a322c"></path>
			<path d="m134.268,295.27c-5.313-.046-9.909-11.957-9.909-27.353s4.596-27.671 9.909-27.625c2.289.028 4.295,1.838 6.001,5.29-.926-1.121-2.044-2.059-3.324-2.08-4.341-.045-7.933,10.787-7.933,23.469s3.522,23.152 7.864,23.152c2.102,0 4.344-2.508 5.754-6.43-2.046,7.117-4.808,11.619-8.362,11.577z" fill="#353630"></path>
			<path d="m134.323,294.984c-5.14-.067-9.738-11.695-9.738-27.09s4.599-27.568 9.738-27.5c2.289.041 4.24,1.735 5.946,5.188-.926-1.121-2.096-2.217-3.483-2.252-4.341-.065-7.968,11.041-7.968,23.724s3.523,23.245 7.865,23.245c2.102,0 4.51-2.556 5.92-6.479-2.149,6.938-4.727,11.229-8.28,11.164z" fill="#3e3a33"></path>
			<path d="m134.378,294.701c-4.967-.092-9.568-11.435-9.568-26.83 0-15.395 4.602-27.465 9.568-27.375 2.288.056 4.185,1.634 5.891,5.086-.926-1.121-2.146-2.377-3.643-2.422-4.34-.088-8.003,11.293-8.003,23.977s3.524,23.34 7.867,23.34c2.102,0 4.675-2.605 6.086-6.529-2.253,6.757-4.645,10.839-8.198,10.753z" fill="#473f38"></path>
			<path d="m134.433,294.417c-4.793-.114-9.397-11.173-9.397-26.568s4.604-27.364 9.397-27.25c2.287.069 4.13,1.531 5.836,4.983-.926-1.121-2.197-2.537-3.801-2.594-4.34-.109-8.039,11.548-8.039,24.23s3.525,23.434 7.868,23.434c2.102,0 4.842-2.654 6.253-6.578-2.358,6.578-4.565,10.45-8.117,10.343z" fill="#4f443c"></path>
			<path d="m134.488,294.133c-4.618-.137-9.227-10.912-9.227-26.307s4.608-27.262 9.227-27.125c2.287.083 4.075,1.429 5.781,4.881-.926-1.121-2.249-2.696-3.961-2.765-4.338-.132-8.073,11.802-8.073,24.483s3.526,23.529 7.869,23.529c2.102,0 5.009-2.705 6.419-6.629-2.461,6.4-4.484,10.062-8.035,9.933z" fill="#574a41"></path>
			<path d="m134.542,293.849c-4.444-.159-9.057-10.649-9.057-26.046s4.612-27.158 9.057-27c2.287.098 4.021,1.327 5.727,4.779-.926-1.121-2.301-2.855-4.119-2.936-4.338-.153-8.109,12.055-8.109,24.736s3.528,23.623 7.87,23.623c2.102,0 5.175-2.754 6.585-6.678-2.565,6.22-4.403,9.673-7.954,9.522z" fill="#5f4f46"></path>
			<path d="m134.598,293.564c-4.271-.182-8.887-10.389-8.887-25.783 0-15.396 4.615-27.058 8.887-26.875 2.286.109 3.965,1.224 5.671,4.676-.926-1.121-2.352-3.016-4.278-3.106-4.338-.175-8.145,12.308-8.145,24.989s3.529,23.718 7.872,23.718c2.102,0 5.34-2.804 6.751-6.727-2.669,6.038-4.321,9.28-7.871,9.108z" fill="#67564c"></path>
			<path d="m134.653,293.281c-4.097-.205-8.716-10.129-8.716-25.523s4.619-26.955 8.716-26.75c2.286.125 3.91,1.122 5.616,4.574-.926-1.121-2.403-3.176-4.438-3.277-4.337-.197-8.18,12.561-8.18,25.243s3.53,23.812 7.873,23.812c2.102,0 5.507-2.854 6.917-6.776-2.772,5.858-4.238,8.891-7.788,8.697z" fill="#6f5c52"></path>
			<path d="m134.708,292.996c-3.924-.227-8.546-9.865-8.546-25.262s4.622-26.852 8.546-26.625c2.285.139 3.854,1.021 5.561,4.473-.926-1.121-2.455-3.335-4.597-3.449-4.337-.219-8.215,12.814-8.215,25.497s3.531,23.905 7.874,23.905c2.102,0 5.673-2.902 7.084-6.824-2.876,5.68-4.159,8.5-7.707,8.285z" fill="#766359"></path>
			<path d="m134.763,292.713c-3.75-.25-8.375-9.605-8.375-25s4.625-26.75 8.375-26.5c2.285.152 3.8.917 5.506,4.369-.926-1.121-2.506-3.494-4.756-3.619-4.336-.241-8.25,13.066-8.25,25.75s3.533,24 7.875,24c2.102,0 5.84-2.953 7.25-6.875-2.98,5.5-4.077,8.111-7.625,7.875z" fill="#7e6b60"></path>
		
	
	
		<path d="m50.923,205.232 .105-.002c4.836,0 8.757,11.449 8.757,25.574s-3.921,25.576-8.757,25.576l-16.271,1.957v-52.827l16.166-.278z" fill="#1d2d28"></path>
		<path d="m43.802,231.924a9.044,26.414 0 1,0 -18.088,0 9.044,26.414 0 1,0 18.088,0" fill="#1d2d28" fill-rule="evenodd"></path>
		
			<path d="m34.757,258.338c-3.983,0-7.366-7.523-8.572-17.971 1.514,8.1 3.875,12.516 7.102,12.516 4.445,0 8.889-9.223 8.889-22.207 0-9.619-2.734-20.061-5.96-24.825 4.302,2.036 7.587,12.935 7.587,26.073-.001,14.588-4.051,26.414-9.046,26.414z" fill="#1d2d28" fill-rule="evenodd"></path>
			<path d="m34.757,258.217c-3.828,0-7.104-7.057-8.338-17.023 1.506,7.654 3.781,11.938 6.975,11.943 4.505.011 8.831-9.5 8.831-22.461 0-9.449-2.647-19.697-5.797-24.52 4.157,2.221 7.323,12.904 7.323,25.768 0,14.611-4.058,26.293-8.994,26.293z" fill="#28312b" fill-rule="evenodd"></path>
			<path d="m34.757,258.096c-3.674,0-6.844-6.59-8.103-16.075 1.498,7.21 3.687,11.359 6.847,11.37 4.564.021 8.773-9.777 8.773-22.715 0-9.279-2.561-19.334-5.635-24.214 4.015,2.406 7.062,12.873 7.062,25.462 .001,14.635-4.067,26.172-8.944,26.172z" fill="#31352f" fill-rule="evenodd"></path>
			<path d="m34.757,257.974c-3.519,0-6.582-6.123-7.868-15.126 1.491,6.764 3.593,10.781 6.72,10.797 4.624.031 8.716-10.055 8.716-22.969 0-9.109-2.474-18.971-5.472-23.908 3.87,2.592 6.799,12.843 6.799,25.156 0,14.658-4.077,26.05-8.895,26.05z" fill="#3a3832" fill-rule="evenodd"></path>
			<path d="m34.757,257.852c-3.363,0-6.32-5.656-7.634-14.178 1.484,6.318 3.499,10.203 6.594,10.225 4.683.041 8.657-10.332 8.657-23.223 0-8.938-2.387-18.606-5.309-23.604 3.727,2.777 6.536,12.812 6.536,24.852 .001,14.681-4.086,25.928-8.844,25.928z" fill="#423c35" fill-rule="evenodd"></path>
			<path d="m34.757,257.73c-3.209,0-6.059-5.189-7.399-13.229 1.478,5.874 3.404,9.624 6.467,9.651 4.741.053 8.601-10.609 8.601-23.477 0-8.769-2.301-18.242-5.146-23.297 3.582,2.963 6.273,12.781 6.273,24.545-.001,14.706-4.097,25.807-8.796,25.807z" fill="#494039" fill-rule="evenodd"></path>
			<path d="m34.757,257.609c-3.054,0-5.798-4.723-7.165-12.281 1.47,5.428 3.311,9.045 6.34,9.078 4.802.062 8.543-10.887 8.543-23.73 0-8.598-2.214-17.879-4.983-22.992 3.438,3.148 6.011,12.752 6.011,24.24-.001,14.728-4.107,25.685-8.746,25.685z" fill="#50453d" fill-rule="evenodd"></path>
			<path d="m34.757,257.488c-2.898,0-5.536-4.257-6.931-11.334 1.463,4.982 3.217,8.469 6.214,8.506 4.859.072 8.484-11.164 8.484-23.984 0-8.428-2.127-17.516-4.821-22.687 3.294,3.333 5.749,12.722 5.749,23.935 .001,14.752-4.115,25.564-8.695,25.564z" fill="#574941" fill-rule="evenodd"></path>
			<path d="m34.757,257.367c-2.743,0-5.275-3.791-6.696-10.387 1.456,4.539 3.123,7.891 6.087,7.935 4.919.082 8.427-11.442 8.427-24.239 0-8.258-2.039-17.152-4.658-22.381 3.149,3.52 5.486,12.691 5.486,23.629 0,14.775-4.125,25.443-8.646,25.443z" fill="#5d4e45" fill-rule="evenodd"></path>
			<path d="m34.757,257.244c-2.588,0-5.014-3.322-6.462-9.437 1.448,4.093 3.029,7.312 5.96,7.361 4.979.093 8.369-11.72 8.369-24.493 0-8.088-1.952-16.789-4.495-22.076 3.006,3.705 5.224,12.662 5.224,23.324 0,14.8-4.135,25.321-8.596,25.321z" fill="#64534a" fill-rule="evenodd"></path>
			<path d="m34.757,257.123c-2.434,0-4.752-2.855-6.228-8.488 1.441,3.646 2.936,6.732 5.833,6.788 5.038.103 8.312-11.997 8.312-24.747 0-7.918-1.865-16.426-4.333-21.77 2.862,3.89 4.961,12.631 4.961,23.018 0,14.822-4.143,25.199-8.545,25.199z" fill="#6a594f" fill-rule="evenodd"></path>
			<path d="m34.757,257.002c-2.278,0-4.491-2.389-5.992-7.541 1.434,3.203 2.841,6.155 5.705,6.216 5.098.113 8.254-12.274 8.254-25.001 0-7.748-1.778-16.062-4.17-21.465 2.719,4.076 4.698,12.601 4.698,22.713 0,14.846-4.153,25.078-8.495,25.078z" fill="#715f54" fill-rule="evenodd"></path>
			<path d="m34.757,256.881c-2.123,0-4.229-1.924-5.758-6.593 1.426,2.757 2.746,5.577 5.579,5.643 5.156.124 8.195-12.552 8.195-25.255 0-7.578-1.691-15.699-4.007-21.159 2.574,4.261 4.436,12.57 4.436,22.407 .001,14.869-4.161,24.957-8.445,24.957z" fill="#78655a" fill-rule="evenodd"></path>
			<path d="m34.757,256.76c-1.969,0-3.969-1.457-5.523-5.645 1.419,2.311 2.652,4.998 5.452,5.07 5.216.133 8.138-12.83 8.138-25.51 0-7.407-1.604-15.335-3.844-20.854 2.43,4.446 4.173,12.539 4.173,22.102 0,14.893-4.172,24.837-8.396,24.837z" fill="#7e6b60" fill-rule="evenodd"></path>
		
		
			
			
			<g clip-path="url(#SVGID_13_)">
					
				<path d="m30.229,218.157h9.029v6.732h-9.029z" fill="url(#SVGID_14_)" fill-rule="evenodd"></path>
					
				<path d="m30.229,224.315h9.029v20.788h-9.029z" fill="url(#SVGID_15_)" fill-rule="evenodd"></path>
			</g>
		
		
			
			
			<g clip-path="url(#SVGID_17_)">
					
				<path d="m27.534,218.93 17.826,5.45-1.917,6.269-17.826-5.449z" fill="url(#SVGID_18_)" fill-rule="evenodd"></path>
					
				<path d="m25.785,224.65 17.825,5.451-1.77,5.789-17.826-5.451z" fill="url(#SVGID_19_)" fill-rule="evenodd"></path>
					
				<path d="m24.182,229.891 17.826,5.45-2.766,9.051-17.826-5.451z" fill="url(#SVGID_20_)" fill-rule="evenodd"></path>
			</g>
		
			<path d="m33.327,223.105c1.667,0 3.011,3.948 3.011,8.818s-1.353,8.818-3.02,8.818c-.954,0-1.804-1.291-2.357-3.307" fill="none" stroke="#a9998f" stroke-miterlimit="3.8637" stroke-width=".2815"></path>
		
			<path d="m32.974,248.576c-3.25,0-5.885-7.166-5.885-16.006s2.635-16.007 5.885-16.007c1.315,0 2.529,1.173 3.51,3.155-.531-.644-1.115-.998-1.727-.998-2.493,0-4.515,5.902-4.515,13.186s2.021,13.186 4.515,13.186c1.207,0 2.304-1.383 3.113-3.635-1.055,4.293-2.854,7.119-4.896,7.119z" fill="#1d2d28"></path>
			<path d="m33.006,248.413c-3.151-.013-5.788-7.017-5.788-15.856s2.637-15.947 5.788-15.935c1.314.008 2.497,1.114 3.478,3.097-.531-.644-1.145-1.09-1.817-1.097-2.493-.013-4.535,6.049-4.535,13.331s2.022,13.24 4.516,13.24c1.206,0 2.398-1.411 3.208-3.664-1.116,4.19-2.809,6.897-4.85,6.884z" fill="#2a322c"></path>
			<path d="m33.038,248.25c-3.051-.025-5.69-6.865-5.69-15.707s2.64-15.889 5.69-15.862c1.314.017 2.466,1.056 3.446,3.038-.531-.644-1.174-1.182-1.909-1.195-2.492-.025-4.555,6.195-4.555,13.477s2.022,13.295 4.516,13.295c1.207,0 2.494-1.439 3.304-3.692-1.174,4.085-2.761,6.671-4.802,6.646z" fill="#353630"></path>
			<path d="m33.07,248.087c-2.952-.039-5.593-6.716-5.593-15.556s2.641-15.831 5.593-15.791c1.313.023 2.434.996 3.414,2.979-.531-.644-1.203-1.273-2-1.293-2.492-.038-4.576,6.34-4.576,13.623s2.023,13.348 4.518,13.348c1.207,0 2.589-1.469 3.398-3.721-1.235,3.983-2.714,6.448-4.754,6.411z" fill="#3e3a33"></path>
			<path d="m33.101,247.924c-2.852-.053-5.494-6.566-5.494-15.406s2.643-15.771 5.494-15.719c1.314.031 2.402.938 3.383,2.92-.531-.644-1.232-1.365-2.092-1.391-2.492-.051-4.596,6.484-4.596,13.768s2.024,13.402 4.518,13.402c1.207,0 2.686-1.496 3.495-3.75-1.294,3.881-2.668,6.225-4.708,6.176z" fill="#473f38"></path>
			<path d="m33.132,247.761c-2.752-.065-5.396-6.416-5.396-15.257s2.645-15.713 5.396-15.646c1.314.039 2.371.879 3.352,2.861-.531-.644-1.262-1.457-2.183-1.49-2.492-.062-4.616,6.631-4.616,13.914s2.024,13.457 4.518,13.457c1.207,0 2.781-1.525 3.591-3.777-1.354,3.777-2.622,5.999-4.662,5.938z" fill="#4f443c"></path>
			<path d="m33.165,247.598c-2.652-.078-5.299-6.266-5.299-15.105s2.646-15.654 5.299-15.576c1.313.047 2.339.82 3.319,2.803-.531-.644-1.291-1.549-2.274-1.588-2.491-.075-4.636,6.776-4.636,14.059s2.025,13.512 4.519,13.512c1.207,0 2.876-1.554 3.686-3.807-1.414,3.672-2.575,5.776-4.614,5.702z" fill="#574a41"></path>
			<path d="m33.196,247.435c-2.552-.091-5.2-6.116-5.2-14.956s2.648-15.596 5.2-15.504c1.313.055 2.308.762 3.288,2.744-.531-.644-1.321-1.641-2.365-1.686-2.491-.088-4.656,6.922-4.656,14.204s2.025,13.565 4.519,13.565c1.207,0 2.972-1.582 3.781-3.835-1.473,3.572-2.528,5.554-4.567,5.468z" fill="#5f4f46"></path>
			<path d="m33.227,247.271c-2.452-.104-5.103-5.966-5.103-14.807s2.65-15.536 5.103-15.432c1.313.063 2.276.703 3.257,2.686-.531-.644-1.351-1.732-2.457-1.784-2.49-.101-4.677,7.067-4.677,14.351s2.026,13.618 4.521,13.618c1.207,0 3.066-1.61 3.877-3.862-1.534,3.467-2.483,5.329-4.521,5.23z" fill="#67564c"></path>
			<path d="m33.259,247.107c-2.354-.117-5.005-5.814-5.005-14.654s2.651-15.479 5.005-15.361c1.312.072 2.244.645 3.225,2.627-.531-.644-1.38-1.824-2.549-1.883-2.49-.113-4.696,7.213-4.696,14.496s2.027,13.673 4.521,13.673c1.207,0 3.162-1.638 3.973-3.892-1.594,3.366-2.437,5.106-4.474,4.994z" fill="#6f5c52"></path>
			<path d="m33.291,246.945c-2.253-.131-4.907-5.666-4.907-14.506s2.654-15.42 4.907-15.289c1.312.08 2.213.586 3.193,2.568-.531-.644-1.409-1.916-2.64-1.98-2.49-.126-4.717,7.357-4.717,14.641s2.027,13.727 4.521,13.727c1.207,0 3.258-1.666 4.068-3.918-1.652,3.26-2.388,4.88-4.425,4.757z" fill="#766359"></path>
			<path d="m33.322,246.781c-2.152-.143-4.809-5.515-4.809-14.355s2.656-15.359 4.809-15.217c1.312.088 2.182.527 3.162,2.51-.531-.644-1.439-2.007-2.73-2.078-2.49-.139-4.738,7.504-4.738,14.785s2.029,13.781 4.522,13.781c1.207,0 3.353-1.694 4.163-3.947-1.711,3.158-2.342,4.658-4.379,4.521z" fill="#7e6b60"></path>
		
	
	<path d="m430.013,205.088c2.603,6.146 3.25,17.75 3.25,29.75 0,1.187-.757,2.791-1.402,4.52 0,0-.574.281-.348,1.73 .106.679.838.613.644,1.641l-2.644,28.109c-.5,10.75-3.43,8.572-5,14.25-1.854,6.703-2.604,10.601-3.367,17.515l-171.775,28.603-5.734-.756-6.868-1.51-73.888-32c-4.477-31.89-6.961-72.943-28.626-76.303-16.284-2.525-17.793,29.311-17.486,57.211l-74.265-31.245c-2.24-19.765-3.865-40.265-9.74-41.39-7.76-1.486-10.309,15.678-10.184,33.178l-4.454-2.053v-2.643l-8.755-4.98c-3.42-27.278-3.506-43.176-.377-70.49 2.396-20.932 1.52-47.388 11.02-52.888l115.397-75.867c18.103-12.633 28.103-21.133 58.715-27.398 28.888-4.735 73.816-1.374 118.868,10.265 27.379,7.074 68.02,25.125 68.02,25.125 15.375,7.625 16.888,17.14 16.888,17.14s-3.013-8.015-12.013-10.765c-24.998-9.955-39.643-14.512-65.875-20.5-32.597-7.44-65.461-12.279-92.234-12.835-2.946-.223-6.053-.07-8.827-.023l11.647,190.761c14.268,12.77 26.921,16.35 42.913,16.098l143-2.25c12.5-.25 15.25-1.75 13.5-10z" fill="#eae5e2" fill-rule="evenodd"></path>
	
		<path d="m292.013,296.965c0,0 77.25-5.377 136-17.93l-3.32,3.918-11.572,2.768-57.107,8.83c-33.609,3.572-54.062,6.063-84.68,10.189-8.814,1.188-21.32,8.098-21.32,8.098 2.499-17 41.999-15.873 41.999-15.873z" fill="#d4cbc5" fill-rule="evenodd"></path>
		<path d="m292.369,297.406c0,0 76.648-5.383 135.398-17.936l-3.349,3.975-10.943,2.716-57.106,8.83c-33.609,3.572-54.062,6.063-84.68,10.188-8.814,1.188-21.676,7.658-21.676,7.658 2.875-16.042 42.356-15.431 42.356-15.431z" fill="#d8cfca" fill-rule="evenodd"></path>
		<path d="m292.724,297.846c0,0 76.047-5.387 134.797-17.939l-3.377,4.031-10.313,2.664-57.106,8.83c-33.609,3.572-54.063,6.062-84.68,10.188-8.814,1.188-22.031,7.218-22.031,7.218 3.249-15.084 42.71-14.992 42.71-14.992z" fill="#dbd3cf" fill-rule="evenodd"></path>
		<path d="m293.08,298.285c0,0 75.445-5.392 134.195-17.943l-3.404,4.088-9.685,2.611-57.106,8.83c-33.609,3.572-54.063,6.063-84.68,10.189-8.814,1.188-22.387,6.777-22.387,6.777 3.625-14.124 43.067-14.552 43.067-14.552z" fill="#dfd7d3" fill-rule="evenodd"></path>
		<path d="m293.434,298.727c0,0 74.845-5.397 133.595-17.949l-3.432,4.145-9.056,2.56-57.107,8.83c-33.609,3.573-54.062,6.063-84.679,10.188-8.815,1.188-22.742,6.338-22.742,6.338 4-13.168 43.421-14.112 43.421-14.112z" fill="#e3dcd8" fill-rule="evenodd"></path>
		<path d="m293.79,299.166c0,0 74.243-5.401 132.993-17.953l-3.46,4.201-8.426,2.508-57.107,8.83c-33.609,3.572-54.062,6.062-84.679,10.188-8.815,1.188-23.098,5.897-23.098,5.897 4.375-12.208 43.777-13.671 43.777-13.671z" fill="#e6e0dd" fill-rule="evenodd"></path>
		<path d="m294.145,299.605c0,0 73.643-5.406 132.393-17.958l-3.489,4.259-7.797,2.455-57.106,8.83c-33.609,3.572-54.062,6.063-84.679,10.189-8.815,1.188-23.453,5.457-23.453,5.457 4.749-11.249 44.131-13.232 44.131-13.232z" fill="#eae5e2" fill-rule="evenodd"></path>
		<path d="m294.5,300.047c0,0 73.041-5.412 131.791-17.964l-3.517,4.314-7.168,2.404-57.106,8.831c-33.609,3.572-54.063,6.062-84.679,10.188-8.815,1.188-23.809,5.018-23.809,5.018 5.126-10.291 44.488-12.791 44.488-12.791z" fill="#ede9e6" fill-rule="evenodd"></path>
		<path d="m294.856,300.486c0,0 72.439-5.416 131.189-17.969l-3.544,4.371-6.539,2.354-57.106,8.83c-33.609,3.572-54.063,6.062-84.68,10.188-8.815,1.188-24.163,4.577-24.163,4.577 5.499-9.332 44.843-12.351 44.843-12.351z" fill="#f1edeb" fill-rule="evenodd"></path>
		<path d="m295.21,300.926c0,0 71.839-5.42 130.589-17.973l-3.572,4.428-5.909,2.301-57.107,8.83c-33.609,3.572-54.062,6.063-84.679,10.189-8.815,1.188-24.519,4.137-24.519,4.137 5.874-8.375 45.197-11.912 45.197-11.912z" fill="#f4f2f0" fill-rule="evenodd"></path>
	
	<path d="m261.013,274.588c0,0-.067,2.055-2.25,2l-11.25.125-7.625-.5c-3.198-.254-3-1.5-3-1.5l-.125-10.125c0,0 .183-1.043 1.625-1l10.5.75 10.25-.25c2.149.055 2,1.625 2,1.625l-.125,8.875z" fill="#d4cbc5" fill-rule="evenodd"></path>
		
		<path d="m195.513,12.837c-4.281,33.414-6.43,93.4-7.48,144.605-17.242-15.386-29.131-21.878-48.02-36.105l-20.5,5c0,0 1.254-26.28 3-43 1.75-16.75 6-37.5 6-37.5s39-25.5 67-33z" fill="url(#SVGID_21_)" fill-rule="evenodd" stroke="#a9998f" stroke-miterlimit="3.8637" stroke-width=".25"></path>
		
	<path d="m245.175,195.465-17.396-184.963c26.773.557 59.638,5.395 92.234,12.835 26.232,5.988 40.877,10.545 65.875,20.5 9,2.75 12.013,10.765 12.013,10.765s25.612,83.735 28.631,145.61l-176.263-1.551c-4.803.874-5.094-3.196-5.094-3.196z" fill="url(#SVGID_22_)" fill-rule="evenodd"></path>
	<path d="m189.013,158.337-.98-.88c1.051-51.236 3.201-111.268 7.496-144.62 6.859-1.183 14.696-2.21 23.423-2.358l11.593,190.609c-1.993-1.742-4.021-3.654-6.031-5.75-.001,0-20.646-23.611-35.501-37.001z" fill-rule="evenodd" stroke="#a9998f" stroke-miterlimit="3.8637" stroke-width=".25"></path>
		
	<path d="m114.263,120.087-104.582,31.099c1.311-15.518 1.722-32.362 6.141-41.016l107.191-67.083c-2.711,15.151-3.928,21.52-5.684,39.056-1.595,15.939-2.066,23.694-3.066,37.944z" fill="url(#SVGID_23_)" stroke="#a9998f" stroke-miterlimit="3.8637" stroke-width=".25"></path>
	<path d="m183.263,205.588v42.25c0,13.25 4,60 4,60" fill="none" stroke="#a9998f" stroke-miterlimit="3.8637" stroke-width=".25"></path>
		<path d="m185.013,195.463a2.875,6.625 0 1,0 -5.75,0 2.875,6.625 0 1,0 5.75,0" fill="none" stroke="#a9998f" stroke-miterlimit="3.8637" stroke-width=".25"></path>
	<path d="m73.367,132.249-1.583.471c.805-11.47 1.185-17.713 2.468-30.542 1.414-14.115 2.394-19.241 4.575-31.437l1.647-1.031c-2.201,12.306-3.19,17.479-4.616,31.721-1.296,12.944-1.679,19.243-2.491,30.818z" fill="#a9998f" fill-rule="evenodd"></path>
	<path d="m45.915,140.412-1.338.397c.68-9.689 1-14.963 2.085-25.801 1.193-11.924 2.021-16.254 3.865-26.557l1.391-.871c-1.859,10.396-2.695,14.766-3.899,26.797-1.096,10.936-1.418,16.257-2.104,26.035z" fill="#a9998f" fill-rule="evenodd"></path>
	<path d="m25.732,146.413-1.156.344c.588-8.38.865-12.942 1.803-22.315 1.033-10.313 1.749-14.059 3.343-22.969l1.204-.753c-1.609,8.991-2.332,12.771-3.373,23.177-.948,9.457-1.227,14.06-1.821,22.516z" fill="#a9998f" fill-rule="evenodd"></path>
	<path d="m397.901,54.603c15.362-1.015 41.612-1.765 49.112,5.485 1.361,1.315 1.854,2.963 2.75,5-1.315-.439-2.562-.679-4.25-.75-1.921-.081-3.448.116-4.91.693l-.59-.943c-3-2.25-5.25-2.75-19.25-2.25-8.107.29-14.695.255-20.239,5.058l-2.623-12.293z" fill-rule="evenodd" stroke="#fff" stroke-miterlimit="3.8637" stroke-width=".5"></path>
	<path d="m445.513,64.337c-3.266-.137-5.393.528-8,2.5l10,48.25c1.56,1.623 3.289,2.174 5.5,1.75 2.244-.43 3.673-1.621 4.5-3.75-.156-8.696-.487-13.612-1.5-22.25-1.129-9.632-2.069-15.051-4.25-24.5-2.144-1.397-3.693-1.892-6.25-2z" fill-rule="evenodd" stroke="#fff" stroke-miterlimit="3.8637" stroke-width=".5"></path>
	<path d="m162.896,296.939c0,0-4.383-28.352-4.383-44.352v-64.25" fill="none" stroke="#a9998f" stroke-miterlimit="3.8637" stroke-width=".25"></path>
		<path d="m183.263,205.588-44.484-31.501-131.582,5.826" fill="none" stroke="#a9998f" stroke-miterlimit="3.8637" stroke-width=".25"></path>
		<path d="m328.641,268.562 66.473-5.751" fill="none" stroke="#d4cbc5" stroke-miterlimit="3.8637" stroke-width=".5"></path>
	<path d="m390.261,263.26-1.436,6.922c-19.669,2.525-32.667,4.009-52.232,5.336l-1.208-7.63 54.876-4.628z" fill="none" stroke="#d4cbc5" stroke-miterlimit="3.8637" stroke-width=".5"></path>
		
	<path d="m280.513,261.213h2.625l.125,13.875-2.875-.125z" fill="url(#SVGID_24_)" fill-rule="evenodd"></path>
		
	<path d="m263.263,261.838 17.25-.625-.125,13.75-17.375.625z" fill="url(#SVGID_25_)" fill-rule="evenodd"></path>
	<path d="m283.263,261.213h1.5v13.75l-1.5.125z" fill="#f4f2f0" fill-rule="evenodd"></path>
		
	<path d="m284.888,261.213 16.125-.875v14.125l-16.25.5z" fill="url(#SVGID_26_)" fill-rule="evenodd"></path>
		
	<path d="m276.013,268.213a4.5,4.125 0 1,0 -9,0 4.5,4.125 0 1,0 9,0" fill="url(#SVGID_27_)" fill-rule="evenodd"></path>
		
	<path d="m295.263,268.338a2.875,3.5 0 1,0 -5.75,0 2.875,3.5 0 1,0 5.75,0" fill="url(#SVGID_28_)" fill-rule="evenodd"></path>
	<path d="m327.816,311.955c-.029.623.451,1.053 1.067.954l37.01-5.894c.616-.098 1.19-.684 1.276-1.301l1.188-8.504c.086-.618-.348-1.045-.964-.949l-38.01,5.902c-.616.096-1.144.684-1.173,1.307l-.394,8.485z" fill="#a9998f" fill-rule="evenodd"></path>
		<path d="m222.588,71.446-32.153,11.176" fill="none" stroke="#fff" stroke-miterlimit="3.8637" stroke-width=".25"></path>
	<path d="m217.128,31.468c-.569.017-21.099,9.457-21.568,9.529-.043,1.053-.168,1.993-.168,2.588l21.826-10.25-.09-1.867z" fill-rule="evenodd" stroke="#fff" stroke-miterlimit="3.8637" stroke-width=".25"></path>
	<path d="m217.038,29.602c-1.138.034-20.37,8.664-21.309,8.808 .045-.854.109-1.611.168-2.588 1.408-.217 19.345-8.036 21.051-8.087l.09,1.867z" fill-rule="evenodd" stroke="#fff" stroke-miterlimit="3.8637" stroke-width=".25"></path>
	<path d="m216.858,25.868c-2.275.069-18.915,7.078-20.793,7.367 .054-.85.109-1.693.169-2.588 2.346-.361 17.69-6.56 20.533-6.646l.091,1.867z" fill-rule="evenodd" stroke="#fff" stroke-miterlimit="3.8637" stroke-width=".25"></path>
	<path d="m216.677,22.134c-3.412.103-17.459,5.491-20.275,5.925 .057-.825.109-1.751.168-2.588 3.285-.506 16.037-5.083 20.018-5.204l.089,1.867z" fill-rule="evenodd" stroke="#fff" stroke-miterlimit="3.8637" stroke-width=".25"></path>
	<path d="m216.408,16.534c-5.119.155-15.277,3.111-19.501,3.763-.067.909-.102,1.663-.169,2.588 3.755-.579 15.21-4.346 19.76-4.484l-.09-1.867z" fill-rule="evenodd" stroke="#fff" stroke-miterlimit="3.8637" stroke-width=".25"></path>
	<path d="m216.317,14.667c-5.687.172-14.549,2.318-19.242,3.042 .064-.855.106-1.776.168-2.588 5.163-.796 12.729-2.132 18.984-2.321l.09,1.867z" fill-rule="evenodd" stroke="#fff" stroke-miterlimit="3.8637" stroke-width=".25"></path>
	<path d="m235.279,328.338c-2.826-26.043-3.886-40.818-4.766-67-.789-23.486-.786-36.765 0-60.25" fill="none" stroke="#a9998f" stroke-miterlimit="3.8637" stroke-width=".25"></path>
	<path d="m188.055,157.585c-1.026,50.1-1.042,91.752-1.042,91.752 0,13.25 4,60 4,60" fill="none" stroke="#a9998f" stroke-miterlimit="3.8637" stroke-width=".25"></path>
	<path d="m368.51,211.334-3.802-.848-.797.031-.382.016h-.765c-.096.256-.247.494-.525.494-.239,0-.359-.104-.59-.159-.111,0-.191.04-.287.096 .224.565.431.853.605,1.45-.223.016-.35,0-.573,0-.108,0-.212-.01-.312-.029 .718,1.917 2.041,3.203 3.556,3.203 1.778,0 3.291-1.772 3.872-4.254zm.159-3.631c-.195.173-.422.295-.743.322-.518.039-1.242-.033-1.242.484 0,.248.271.287.478.415 .398.239.542.51.9.796 .22.174.429.254.658.309 .028-.309.043-.622.043-.941 0-.476-.032-.94-.094-1.385zm-5.526-4.676c.199.114.376.277.609.426 .406.262.829.453.829.939 0,.645-.207,1.035-.574,1.561-.175.256-.35.423-.35.733 0,.319.397.414.717.414 .764,0 1.131-.542 1.895-.542 .398,0 .605.191.988.287 .498.125.821.129 1.283.128-.557-2.552-2.094-4.386-3.902-4.386-.527.001-1.031.157-1.495.44zm-1.716.584c.422-.326.637-.732 1.179-.732 .602-.455 1.281-.717 2.032-.717 2.134,0 3.764,2.107 4.332,4.807 .177-.01.324-.044.493-.154-.163.163-.298.332-.429.49 .101.576.153,1.174.153,1.783 0,.344-.017.686-.05,1.021 .397.074.549.186.819.186 .351,0 .542-.127.892-.127 .12,0 .207.119.207.238 0,.701-.652,1.131-1.354,1.195l-.781-.176c-.609,2.594-2.208,4.586-4.283,4.586-1.864,0-3.345-1.607-4.067-3.814-.488-.282-.818-.811-.92-1.425-.151-.948-.446-1.458-.446-2.421 0-.463.191-.828.605-1.027 .199-.096.366.055.565-.032 .239-.112.151-.406.286-.638 .191-.326.51-.461.51-.844 0-.119-.087-.239-.207-.239-.198,0-.294.159-.493.159-.278,0-.565-.176-.565-.453 0-.264.143-.398.278-.613 .001,0 .582-.543 1.244-1.053z" fill="#fff" stroke="#e2001a" stroke-miterlimit="3.8637" stroke-width=".25"></path>
		<path d="m393.459,268.885 5.291-17.824 33.093-4.352" fill="none" stroke="#a9998f" stroke-miterlimit="3.8637" stroke-width=".25"></path>
	<path d="m227.763,10.337 17.412,185.127c0,0 .291,4.07 5.094,3.197l176.263,1.551c0,0 1.17.576 1.761,1.143 1.157,1.109 1.397,2.051 1.721,3.732 1.75,8.25-1,9.75-13.5,10l-143,2.25c-15.992.252-28.646-3.328-42.913-16.098l-11.649-190.76c2.774-.047 5.881-.2 8.811-.142z" fill-rule="evenodd"></path>
		
		<path d="m260.763,273.088c0,0-.067,2.055-2.25,2l-11.25.125-7.625-.5c-3.198-.254-3-1.5-3-1.5l-.125-10.125c0,0 .183-1.043 1.625-1l10.5.75 10.25-.25c2.149.055 2,1.625 2,1.625l-.125,8.875z" fill="url(#SVGID_29_)" fill-rule="evenodd" stroke="#fcc000" stroke-linejoin="round" stroke-miterlimit="3.8637" stroke-width=".5"></path>
		<path d="m138.06,177.732v28.233l-10.791-.944v-26.97z" fill="none" stroke="#a9998f" stroke-miterlimit="3.8637" stroke-width=".25"></path>
	<path d="m49.656,249.509c0,0-2.106-5.171-2.106-34.343v-75.279" fill="none" stroke="#a9998f" stroke-miterlimit="3.8637" stroke-width=".25"></path>
	<path d="m78.52,261.697c0,0-2.504-6.144-2.504-40.814v-89.356" fill="none" stroke="#a9998f" stroke-miterlimit="3.8637" stroke-width=".2971"></path>
	<path d="m61.976,254.711c0,0-2.276-5.584-2.276-37.105v-81.261" fill="none" stroke="#a9998f" stroke-miterlimit="3.8637" stroke-width=".2701"></path>
		<path d="m46.513,188.713h-6.25v11.75l6.25.125z" fill="none" stroke="#a9998f" stroke-miterlimit="3.8637" stroke-width=".25"></path>
	<path d="m272.321,71.045 49.942-14.646 1.996,7.877 2.954,3.569 17.6.492 7.508,31.508 4.43,10.954-4.43,15.262-1.6-2.462 .246-4.307 .246-1.478-5.169-2.707-.739-3.323-3.569-4.185-.738-3.2-42.461-6.031-.493,2.215-3.077,1.97-.246,3.815 .492,6.523 .493,6.647-3.693-.739-1.476-3.692-.246-3.815-1.724-2.462 1.477-1.477 .985-7.016 .246-3.692-1.724-2.092-3.323-.492-2.953,1.969-9.97-.985-.492-6.4 1.478-1.107 1.722-5.17 .246-4.8-1.968-1.723-1.724-1.231z" fill="#fff" fill-rule="evenodd"></path>
	<path d="m400.075,98.614-2.585-10.584-5.169-17.231-20.554,2.338-4.061,7.508v9.969l2.831,10.462-1.724,2.708 16.738-2.708z" fill="#fff" fill-rule="evenodd"></path>
	<path d="m399.213,110.553 7.015,60.554h-4.923l-4.554-4.062-8-5.662 .493-3.322-2.461-2.954-2.462-1.231-2.339.738-.984,2.708-9.231-4.923-.492-38.277z" fill="#fff" fill-rule="evenodd"></path>
	
		<path d="m214.513,26.337c1.387-4.235 3.436-8.284 5.75-9.875 4-2.75 12.75-6.375 22-8.875l.75,8c-8-.75-20.375,3.75-24.125,9.25 0,0-2.666.925-4.375,1.5z" fill-rule="evenodd" stroke="#fff" stroke-miterlimit="3.8637" stroke-width=".25"></path>
		<path d="m214.513,26.337-.5-11.75c2.608-2.357 4.321-3.499 7.5-5 7.352-3.472 12.871-4.004 20.75-2l.75,8c-8-.75-13.254-1.764-20,2.25-4.029,2.398-6.102,4.472-8.5,8.5z" fill-rule="evenodd" stroke="#fff" stroke-miterlimit="3.8637" stroke-width=".25"></path>
		<path d="m231.513,15.587c-.558-2.08-.424-3.554.5-5.5 1.098-2.312 2.515-3.64 5-4.25 1.326-.326 2.176-.332 3.5,0 2.545.639 3.812,2.161 5,4.5 .857,1.688 1.104,2.859 1,4.75-2.357,2.428-4.651,3.363-8.034,3.277-2.923-.073-4.793-.819-6.966-2.777z" fill-rule="evenodd" stroke="#fff" stroke-miterlimit="3.8637" stroke-width=".25"></path>
		<path d="m233.513,15.087c-4,.25-5.75,5-5,9.75l2,51.5c0,4.5 1.5,7.75 4.5,7.5l18-.5c2.75-.25 2.25-5.5 2.25-5.5l-3.25-52c0-8.25-5.5-10.75-5.5-10.75h-13z" fill-rule="evenodd" stroke="#fff" stroke-miterlimit="3.8637" stroke-width=".25"></path>
	
	
	<path d="m224.529,195.338-32.412-33.608c0,0 .311-36.601 1.529-76.019l25.495-8.622 5.388,118.249zm-30.598-116.125c.377-11.354.792-22.786 1.322-33.503l22.022-10.129 1.613,34.632-24.957,9z" fill="url(#SVGID_30_)" stroke="#a9998f" stroke-miterlimit="3.8637" stroke-width=".25"></path>
		
		<path d="m430.203,260.338 .677-9.6c0,0 2.067-.234 2.101,1.966l-.533,5.667c-.085,1.724-2.245,1.967-2.245,1.967z" fill="url(#SVGID_31_)" fill-rule="evenodd" stroke="#fcc000" stroke-linejoin="round" stroke-miterlimit="3.8637" stroke-width=".5"></path>
		<path d="m258.388,262.588 .125,12.5" fill="none" stroke="#fcc000" stroke-linejoin="round" stroke-miterlimit="3.8637" stroke-width=".5"></path>
		<path d="m256.388,262.713 .125,12.5" fill="none" stroke="#fcc000" stroke-linejoin="round" stroke-miterlimit="3.8637" stroke-width=".5"></path>
		<path d="m254.388,262.838 .125,12.5" fill="none" stroke="#fcc000" stroke-linejoin="round" stroke-miterlimit="3.8637" stroke-width=".5"></path>
		<path d="m252.388,262.963 .125,12.5" fill="none" stroke="#fcc000" stroke-linejoin="round" stroke-miterlimit="3.8637" stroke-width=".5"></path>
		<path d="m250.388,263.088 .125,12.5" fill="none" stroke="#fcc000" stroke-linejoin="round" stroke-miterlimit="3.8637" stroke-width=".5"></path>
		<path d="m248.013,262.713 .125,12.5" fill="none" stroke="#fcc000" stroke-linejoin="round" stroke-miterlimit="3.8637" stroke-width=".5"></path>
		<path d="m245.888,262.713 .125,12.5" fill="none" stroke="#fcc000" stroke-linejoin="round" stroke-miterlimit="3.8637" stroke-width=".5"></path>
		<path d="m243.638,262.338 .125,12.5" fill="none" stroke="#fcc000" stroke-linejoin="round" stroke-miterlimit="3.8637" stroke-width=".5"></path>
		<path d="m241.888,262.338 .125,12.5" fill="none" stroke="#fcc000" stroke-linejoin="round" stroke-miterlimit="3.8637" stroke-width=".5"></path>
		<path d="m239.263,262.213 .125,12.5" fill="none" stroke="#fcc000" stroke-linejoin="round" stroke-miterlimit="3.8637" stroke-width=".5"></path>
		<path d="m238.388,261.963 .125,12.5" fill="none" stroke="#fcc000" stroke-linejoin="round" stroke-miterlimit="3.8637" stroke-width=".5"></path>
		<path d="m237.263,262.338 .125,11.875" fill="none" stroke="#fcc000" stroke-linejoin="round" stroke-miterlimit="3.8637" stroke-width=".5"></path>
		<path d="m240.513,262.213 .125,12.5" fill="none" stroke="#fcc000" stroke-linejoin="round" stroke-miterlimit="3.8637" stroke-width=".5"></path>
	<path d="m430.501,264.159c0,0-22.521,3.547-36.976,5.417-24.348,3.15-38.132,4.783-62.637,6.312-36.954,2.306-88.225,6.202-94.933.456-.235-4.135-.485-8.508-.693-13.256-.099-2.258-.188-4.419-.269-6.502" fill="none" stroke="#d4cbc5" stroke-miterlimit="3.8637" stroke-width=".5"></path>
		<path d="m235.01,256.586c0,0 9.541.883 15.654,1.279 28.989,1.877 45.752-.226 74.473-1.125l5.077,18.248" fill="none" stroke="#a9998f" stroke-linecap="round" stroke-linejoin="round" stroke-miterlimit="3.8637" stroke-width="1.0001"></path>
	<path d="m430.001,264.909c0,0-22.521,3.547-36.976,5.417-24.348,3.15-38.132,4.783-62.637,6.312-36.954,2.306-88.225,6.202-94.933.456-.235-4.135-.485-8.508-.693-13.256-.099-2.258-.188-4.419-.269-6.502" fill="none" stroke="#fff" stroke-miterlimit="3.8637" stroke-width=".5"></path>
		<path d="m278.888,261.213v13.75" fill="none" stroke="#d4cbc5" stroke-miterlimit="3.8637" stroke-width=".5"></path>
		<path d="m277.138,261.213v13.75" fill="none" stroke="#d4cbc5" stroke-miterlimit="3.8637" stroke-width=".5"></path>
		<path d="m275.388,261.213v13.75" fill="none" stroke="#d4cbc5" stroke-miterlimit="3.8637" stroke-width=".5"></path>
		<path d="m273.638,261.213v13.75" fill="none" stroke="#d4cbc5" stroke-miterlimit="3.8637" stroke-width=".5"></path>
		<path d="m271.763,261.338v13.75" fill="none" stroke="#d4cbc5" stroke-miterlimit="3.8637" stroke-width=".5"></path>
		<path d="m270.138,261.713v13.75" fill="none" stroke="#d4cbc5" stroke-miterlimit="3.8637" stroke-width=".5"></path>
		<path d="m268.388,261.713v13.75" fill="none" stroke="#d4cbc5" stroke-miterlimit="3.8637" stroke-width=".5"></path>
		<path d="m266.638,261.838v13.75" fill="none" stroke="#d4cbc5" stroke-miterlimit="3.8637" stroke-width=".5"></path>
		<path d="m264.888,261.838v13.75" fill="none" stroke="#d4cbc5" stroke-miterlimit="3.8637" stroke-width=".5"></path>
		<path d="m263.263,261.838 17.125-.625v13.75" fill="none" stroke="#a9998f" stroke-miterlimit="3.8637" stroke-width=".5"></path>
		<path d="m285.013,261.213v13.75" fill="none" stroke="#d4cbc5" stroke-miterlimit="3.8637" stroke-width=".5"></path>
		<path d="m286.763,261.213v13.75" fill="none" stroke="#d4cbc5" stroke-miterlimit="3.8637" stroke-width=".5"></path>
		<path d="m288.513,261.088v13.75" fill="none" stroke="#d4cbc5" stroke-miterlimit="3.8637" stroke-width=".5"></path>
		<path d="m290.263,260.963v13.75" fill="none" stroke="#d4cbc5" stroke-miterlimit="3.8637" stroke-width=".5"></path>
		<path d="m292.013,260.838v13.75" fill="none" stroke="#d4cbc5" stroke-miterlimit="3.8637" stroke-width=".5"></path>
		<path d="m293.763,260.713v13.75" fill="none" stroke="#d4cbc5" stroke-miterlimit="3.8637" stroke-width=".5"></path>
		<path d="m295.513,260.588v13.75" fill="none" stroke="#d4cbc5" stroke-miterlimit="3.8637" stroke-width=".5"></path>
		<path d="m297.263,260.463v13.75" fill="none" stroke="#d4cbc5" stroke-miterlimit="3.8637" stroke-width=".5"></path>
		<path d="m299.013,260.338v13.75" fill="none" stroke="#d4cbc5" stroke-miterlimit="3.8637" stroke-width=".5"></path>
		
	<path d="m301.013,260.338h2.625l.125,13.875-2.75.25z" fill="url(#SVGID_32_)" fill-rule="evenodd"></path>
	<path d="m303.763,260.338h1.5v13.75l-1.5.125z" fill="#f4f2f0" fill-rule="evenodd"></path>
		
	<path d="m319.654,259.588h2.625l-.016,13.5-2.75.125z" fill="url(#SVGID_33_)" fill-rule="evenodd"></path>
		
	<path d="m305.263,260.338 14.375-.625-.125,13.5-14.25.875z" fill="url(#SVGID_34_)" fill-rule="evenodd"></path>
		
	<path d="m316.013,267.088a2.875,3.5 0 1,0 -5.75,0 2.875,3.5 0 1,0 5.75,0" fill="url(#SVGID_35_)" fill-rule="evenodd"></path>
		<path d="m305.388,260.463v13.75" fill="none" stroke="#d4cbc5" stroke-miterlimit="3.8637" stroke-width=".5"></path>
		<path d="m307.013,260.588v13.75" fill="none" stroke="#d4cbc5" stroke-miterlimit="3.8637" stroke-width=".5"></path>
		<path d="m308.781,260.338v13.75" fill="none" stroke="#d4cbc5" stroke-miterlimit="3.8637" stroke-width=".5"></path>
		<path d="m310.548,260.213v13.75" fill="none" stroke="#d4cbc5" stroke-miterlimit="3.8637" stroke-width=".5"></path>
		<path d="m312.317,260.213v13.75" fill="none" stroke="#d4cbc5" stroke-miterlimit="3.8637" stroke-width=".5"></path>
		<path d="m314.209,259.963v13.75" fill="none" stroke="#d4cbc5" stroke-miterlimit="3.8637" stroke-width=".5"></path>
		<path d="m315.978,259.963v13.75" fill="none" stroke="#d4cbc5" stroke-miterlimit="3.8637" stroke-width=".5"></path>
		<path d="m317.746,259.963v13.75" fill="none" stroke="#d4cbc5" stroke-miterlimit="3.8637" stroke-width=".5"></path>
		<path d="m319.388,259.338v13.75" fill="none" stroke="#d4cbc5" stroke-miterlimit="3.8637" stroke-width=".5"></path>
	<path d="m263.263,261.838-.25,13.75c0,0 52.25-1.25 59.25-2.5v-13.5l-59,2.25z" fill="none" stroke="#a9998f" stroke-miterlimit="3.8637" stroke-width=".5"></path>
	
		
		<use fill="#fff" fill-rule="evenodd" xlink:href="#SVGID_36_"></use>
		
		<path clip-path="url(#SVGID_37_)" d="m327.745,312.005c-.029.623.451,1.052 1.067.954l37.01-5.893c.616-.099 1.19-.684 1.276-1.303l1.187-8.504c.087-.617-.348-1.044-.963-.948l-38.01,5.901c-.616.096-1.145.684-1.173,1.307l-.394,8.486z" fill="#f4f2f0" fill-rule="evenodd"></path>
	
	<path d="m234.719,246.34c-.042-1.611.073-1.943.044-3.502 0,0 18.048,7.096 62,4.5l135.098-7.98" fill="none" stroke="#a9998f" stroke-miterlimit="3.8637" stroke-width=".5"></path>
	<path d="m431.263,242.088-139.75,8.5c-45.811,2.785-56.81-4.248-56.81-4.248" fill="none" stroke="#fff" stroke-miterlimit="3.8637" stroke-width=".5"></path>
		<path d="m241.279,330.088c-2.421-17.838-4.05-32.23-5.051-46.826 9.292,5.416 48.216,1.328 94.494-2.152 19.471-1.465 39.927-3.746 62.492-7.145 11.453-1.725 23.29-3.737 36.145-6.076" fill="none" stroke="#a9998f" stroke-linecap="round" stroke-miterlimit="3.8637" stroke-width=".5"></path>
		<path d="m240.864,330.088c-2.421-17.838-4.065-32.23-5.065-46.826" fill="none" stroke="#fff" stroke-linecap="round" stroke-miterlimit="3.8637" stroke-width=".5"></path>
		<path d="m236.674,283.906c9.292,5.418 48.2,1.328 94.478-2.152 19.472-1.463 39.928-3.746 62.493-7.145 11.453-1.725 23.29-3.736 36.145-6.074" fill="none" stroke="#fff" stroke-linecap="round" stroke-miterlimit="3.8637" stroke-width=".5"></path>
		<path d="m250.013,312.838c2.5-17 14.652-12.27 42-15.873 0,0 77.018-5.336 135.768-17.889" fill="none" stroke="#eae5e2" stroke-linecap="round" stroke-miterlimit="3.8637" stroke-width=".5"></path>
		<path d="m117.672,169.228-.031-22.769 37.122-6.443" fill="none" stroke="#fff" stroke-miterlimit="3.8637" stroke-width=".5"></path>
		<path d="m154.779,140.016-.016,26.591-37.122,2.621" fill="none" stroke="#d4cbc5" stroke-miterlimit="3.8637" stroke-width=".5"></path>
	
			
		<path d="m419.831,251.135 1.094-.121v10.836l-1.094.183z" fill="url(#SVGID_38_)" fill-rule="evenodd"></path>
		<path d="m409.095,252.307 .873-.047v11.352l-.873.238z" fill="#f4f2f0" fill-rule="evenodd"></path>
			
		<path d="m407.843,252.38 1.252-.073v11.543l-1.252.284z" fill="url(#SVGID_39_)" fill-rule="evenodd"></path>
			
		<path d="m427.945,250.174 1.346-.026 .181,10.19-1.527.267z" fill="url(#SVGID_40_)" fill-rule="evenodd"></path>
			
		<path d="m399.114,253.25 8.726-.87v11.687l-9.09,1.535z" fill="url(#SVGID_41_)" fill-rule="evenodd"></path>
			
		<path d="m407.114,257.979a3.192,3.453 0 1,0 -6.384,0 3.192,3.453 0 1,0 6.384,0" fill="url(#SVGID_42_)" fill-rule="evenodd"></path>
			
		<path d="m410.015,252.07 9.786-.935v10.898l-9.833,1.579z" fill="url(#SVGID_43_)" fill-rule="evenodd"></path>
			
		<path d="m420.956,251.014 6.989-.84v10.431l-7.02,1.245z" fill="url(#SVGID_44_)" fill-rule="evenodd"></path>
			
		<path d="m416.549,257.158a2.724,3.18 0 1,0 -5.448,0 2.724,3.18 0 1,0 5.448,0" fill="url(#SVGID_45_)" fill-rule="evenodd"></path>
			
		<path d="m426.575,255.797a2.153,3.277 0 1,0 -4.306,0 2.153,3.277 0 1,0 4.306,0" fill="url(#SVGID_46_)" fill-rule="evenodd"></path>
		<path d="m420.941,251.217 .664-.143v10.498l-.68.278z" fill="#f4f2f0" fill-rule="evenodd"></path>
			<path d="m399.983,253.165 .04,12.392" fill="none" stroke="#d4cbc5" stroke-miterlimit="3.8637" stroke-width=".5"></path>
			<path d="m401.414,252.983 .041,12.392" fill="none" stroke="#d4cbc5" stroke-miterlimit="3.8637" stroke-width=".5"></path>
			<path d="m402.845,252.802 .04,12.186" fill="none" stroke="#d4cbc5" stroke-miterlimit="3.8637" stroke-width=".5"></path>
			<path d="m404.276,252.62 .04,12.13" fill="none" stroke="#d4cbc5" stroke-miterlimit="3.8637" stroke-width=".5"></path>
			<path d="m405.707,252.439 .041,12.075" fill="none" stroke="#d4cbc5" stroke-miterlimit="3.8637" stroke-width=".5"></path>
			<path d="m407.138,252.258 .04,12.017" fill="none" stroke="#d4cbc5" stroke-miterlimit="3.8637" stroke-width=".5"></path>
			<path d="m410.577,252.139 .04,11.568" fill="none" stroke="#d4cbc5" stroke-miterlimit="3.8637" stroke-width=".5"></path>
			<path d="m412.007,251.957 .041,11.418" fill="none" stroke="#d4cbc5" stroke-miterlimit="3.8637" stroke-width=".5"></path>
			<path d="m413.439,251.775 .04,11.315" fill="none" stroke="#d4cbc5" stroke-miterlimit="3.8637" stroke-width=".5"></path>
			<path d="m414.87,251.594 .04,11.213" fill="none" stroke="#d4cbc5" stroke-miterlimit="3.8637" stroke-width=".5"></path>
			<path d="m416.3,251.412 .04,11.156" fill="none" stroke="#d4cbc5" stroke-miterlimit="3.8637" stroke-width=".5"></path>
			<path d="m417.731,251.231 .04,11.101" fill="none" stroke="#d4cbc5" stroke-miterlimit="3.8637" stroke-width=".5"></path>
			<path d="m419.162,251.05 .041,11.045" fill="none" stroke="#d4cbc5" stroke-miterlimit="3.8637" stroke-width=".5"></path>
			<path d="m422.87,250.963 .04,10.516" fill="none" stroke="#d4cbc5" stroke-miterlimit="3.8637" stroke-width=".5"></path>
			<path d="m424.3,250.781 .04,10.508" fill="none" stroke="#d4cbc5" stroke-miterlimit="3.8637" stroke-width=".5"></path>
			<path d="m425.731,250.6 .04,10.451" fill="none" stroke="#d4cbc5" stroke-miterlimit="3.8637" stroke-width=".5"></path>
			<path d="m427.162,250.418 .041,10.349" fill="none" stroke="#d4cbc5" stroke-miterlimit="3.8637" stroke-width=".5"></path>
			<path d="m429.291,250.148-30.177,3.102-.364,12.352 30.722-5.264z" fill="none" stroke="#a9998f" stroke-miterlimit="3.8637" stroke-width=".5"></path>
	

<g id="GLOBOS">
</g>
</svg>
